<svg width="21" height="28" viewBox="0 0 21 28" fill="none" xmlns="http://www.w3.org/2000/svg">
<path d="M10.35 0C4.93205 0 0.550049 4.382 0.550049 9.8C0.550049 17.15 10.35 28 10.35 28C10.35 28 20.15 17.15 20.15 9.8C20.15 4.382 15.768 0 10.35 0ZM10.35 13.3C9.42179 13.3 8.53155 12.9313 7.87517 12.2749C7.2188 11.6185 6.85005 10.7283 6.85005 9.8C6.85005 8.87174 7.2188 7.9815 7.87517 7.32513C8.53155 6.66875 9.42179 6.3 10.35 6.3C11.2783 6.3 12.1685 6.66875 12.8249 7.32513C13.4813 7.9815 13.85 8.87174 13.85 9.8C13.85 10.7283 13.4813 11.6185 12.8249 12.2749C12.1685 12.9313 11.2783 13.3 10.35 13.3V13.3Z" fill="#E92121"/>
<circle cx="10.5" cy="10" r="4" fill="black"/>
</svg>
