<svg xmlns="http://www.w3.org/2000/svg" width="620.491" height="209.549" viewBox="0 0 620.491 209.549">
  <g id="_705_Converted_" data-name="705 [Converted]" transform="translate(-119.954 -345.365)">
    <path id="Path_2854" data-name="Path 2854" d="M333.168,228.959a30.782,30.782,0,0,1,18.355-7.878,2.659,2.659,0,0,1,2.619,1.792A2.127,2.127,0,0,1,355.935,225a114.99,114.99,0,0,1-1.32,12.447c-.3,2.462-.355,5.2-2.422,6.893-4.274,3.545-13.175.847-17.193-1.969C330.451,239.278,328.7,233.016,333.168,228.959Z" transform="translate(338.145 265.233)" fill="#f46083"/>
    <path id="Path_2855" data-name="Path 2855" d="M65.024,235.738c.2-3.466.433-6.913.886-10.359a2.856,2.856,0,0,1,.217-1.615s0-.158,0-.236a1.969,1.969,0,0,1,2.619-1.733,2.365,2.365,0,0,1,1.044,0c5.908,1.812,12.525,4.254,14.948,10.615a11.029,11.029,0,0,1-5.219,13.668c-3.25,1.871-12.073,5-14.416.354C63.625,243.655,64.866,238.83,65.024,235.738Z" transform="translate(80.102 265.819)" fill="#f46083"/>
    <path id="Path_2856" data-name="Path 2856" d="M304.634,274.213a79.293,79.293,0,0,1-19.989-12.545,55.794,55.794,0,0,1-17.173-56.621c5.613-20.049,23.042-34.327,42.953-38.758,2.9-.63,1.615-4.805-1.2-4.352a59.378,59.378,0,0,0-42.973,32.121,60.933,60.933,0,0,0,.67,54.139c7.208,14.1,19.911,23.81,33.972,30.467A12.92,12.92,0,0,1,304.634,274.213Z" transform="translate(269.962 207.867)" fill="#00484c"/>
    <path id="Path_2857" data-name="Path 2857" d="M467.826,237.432a64.636,64.636,0,0,0-21.033-40.668c-12.033-10.714-26.508-17.567-41.5-23.141-30.88-11.482-64.419-14.948-97.171-15.322a352.774,352.774,0,0,0-55.734,3.427c-3.092-5.672-9.532-7.641-15.992-6.7a170.374,170.374,0,0,0-109.165,64.282c-9.65,12.506-17.961,28.2-17.213,44.489A42.5,42.5,0,0,0,115.7,283.24a41.87,41.87,0,0,0,24.5,35.036c14.495,6.558,30.8,8.7,46.34,11.659q26.41,5.022,53.056,8.547c34.071,4.451,68.654,6.282,102.9,2.737,30.526-3.171,63.336-9.158,88.624-27.769C454.671,296.061,471.745,267.682,467.826,237.432Z" transform="translate(124.297 200.986)" fill="#005c7c"/>
    <path id="Path_2858" data-name="Path 2858" d="M307.169,244.333c-2.4-33.657-15.44-70.9-48.526-85.827-15.283-6.854-33.382-8.685-49.235-2.481-16.523,6.46-27.2,19.852-33.854,35.883a139.829,139.829,0,0,0-10.3,57.8,166.029,166.029,0,0,0,2.166,23.062q.118,5.672.709,11.265c2.127,19.694,8.7,38.935,22.747,53.45a60.816,60.816,0,0,0,52.15,18.394,55.144,55.144,0,0,0,34.524-12.6C306.361,320.313,309.611,278.384,307.169,244.333Zm-67.354,83.188c-35.843,3.269-44.745-42.264-44.627-68.929,0-6.991,2.3-31.511,3.053-36.375,2.856-18.69,13.274-39.861,34.918-40.117C269,181.706,282,224.954,282.827,253.707c.807,28.222-8.665,70.643-43.012,73.774Z" transform="translate(177.799 198.497)" fill="#e0466b"/>
    <path id="Path_2859" data-name="Path 2859" d="M302.938,241.618c-2.4-33.657-15.44-71-48.526-85.847-15.283-6.854-33.382-8.665-49.235-2.481-16.523,6.46-27.2,19.871-33.854,35.883a140.321,140.321,0,0,0-10.28,57.8,166.293,166.293,0,0,0,2.166,23.062,106.4,106.4,0,0,0,.709,11.245c2.127,19.694,8.7,38.955,22.747,53.47a60.815,60.815,0,0,0,52.15,18.394,55.143,55.143,0,0,0,34.484-12.6C302.13,317.638,305.38,275.709,302.938,241.618Zm-67.354,83.188c-35.843,3.269-44.745-42.283-44.627-68.929,0-7.011,2.324-31.511,3.053-36.395,2.856-18.67,13.274-39.861,34.918-40.1,35.843-.394,48.841,42.854,49.669,71.588C279.4,279.234,269.931,321.655,235.584,324.807Z" transform="translate(173.719 195.854)" fill="#ff4874"/>
    <path id="Path_2860" data-name="Path 2860" d="M211.8,246.639a9.237,9.237,0,0,0-2.147-2.816,20.975,20.975,0,0,0-13.175-4.943,518.483,518.483,0,0,0-5.908-74.306c-1.241-7.878-10.556-12.6-17.725-11.541-7.543,1.142-14.377,7.681-13.963,15.755,1.182,23.928,2.442,47.837,2.678,71.8q-7.307.354-14.593.512c-2.915,0-5.908-.158-9-.177-.118-.611-.217-1.2-.3-1.792s-.138-1.457-.217-2.166a11.621,11.621,0,0,0,0-1.438c-.394-5.79-.847-11.58-1.26-17.331-.906-14.948-1.379-29.9-1.241-44.863.177-21.565-33.066-21.545-33.48,0-.512,26.981,0,54.828,4.352,81.534a23.515,23.515,0,0,0,12.348,17.922c6.519,3.427,14.239,3.289,21.408,3.309,9.138,0,18.276-.315,27.414-.886-.2,6.617-.433,13.215-.748,19.832-.335,7.307-.65,14.613-1.063,21.92-.473,8.212-1.615,16.287-.256,24.421,1,6.105,8.016,10.517,13.786,10.517A14.751,14.751,0,0,0,192.5,341.388c2.8-8.665,2.186-19.2,2.639-28.281s.768-18.059.906-27.1q.118-8.114.118-16.287c4.234-1.516,8.173-3.466,12.506-5.3C216.365,261.272,216.109,252.272,211.8,246.639Z" transform="translate(115.894 199.125)" fill="#ef1d52"/>
    <path id="Path_2861" data-name="Path 2861" d="M354.546,246.422a8.588,8.588,0,0,0-2.127-2.8,20.994,20.994,0,0,0-13.175-4.963,518.457,518.457,0,0,0-5.908-74.286c-1.241-7.878-10.556-12.624-17.725-11.541-7.543,1.123-14.377,7.681-13.963,15.755,1.182,23.948,2.442,47.857,2.678,71.8-4.864.236-9.729.433-14.593.512-2.934,0-5.908-.138-9-.158-.118-.611-.217-1.221-.3-1.792s-.138-1.457-.217-2.186a8.632,8.632,0,0,1,0-1.438c-.414-5.79-.847-11.56-1.26-17.331-.926-14.928-1.379-29.9-1.26-44.863.2-21.545-33.047-21.545-33.48,0-.512,27,0,54.828,4.352,81.553a23.514,23.514,0,0,0,12.348,17.922c6.5,3.407,14.239,3.289,21.408,3.309,9.138,0,18.276-.335,27.414-.906-.2,6.617-.433,13.234-.748,19.852-.335,7.307-.65,14.613-1.083,21.92-.473,8.193-1.6,16.267-.256,24.4,1.024,6.125,8.016,10.536,13.786,10.536a14.751,14.751,0,0,0,13.786-10.536c2.816-8.665,2.186-19.2,2.659-28.281s.768-18.04.906-27.079q.118-8.153.118-16.307c4.234-1.5,8.173-3.447,12.486-5.278C359.135,261.074,358.879,252.074,354.546,246.422Z" transform="translate(254.278 198.929)" fill="#ef1d52"/>
    <path id="Path_2862" data-name="Path 2862" d="M206.953,244.339a8.723,8.723,0,0,0-2.147-2.816,20.856,20.856,0,0,0-13.156-4.943,518.513,518.513,0,0,0-5.908-74.306c-1.241-7.878-10.536-12.6-17.725-11.541-7.523,1.142-14.357,7.681-13.963,15.755,1.182,23.928,2.442,47.837,2.678,71.8q-7.267.354-14.593.512c-2.915,0-5.908-.158-8.981-.177a14.772,14.772,0,0,1-.3-1.792,19.694,19.694,0,0,0-.236-2.166,11.619,11.619,0,0,0,0-1.438c-.394-5.79-.827-11.58-1.241-17.351-.926-14.928-1.4-29.876-1.26-44.844.2-21.565-33.066-21.545-33.48,0-.492,26.981,0,54.829,4.352,81.534a23.515,23.515,0,0,0,12.348,17.922c6.519,3.427,14.239,3.289,21.408,3.309,9.138,0,18.3-.315,27.414-.886-.177,6.617-.433,13.215-.748,19.832-.335,7.307-.65,14.613-1.063,21.92-.473,8.212-1.615,16.287-.256,24.421,1,6.105,8.016,10.517,13.786,10.517a14.751,14.751,0,0,0,13.786-10.517c2.8-8.665,2.186-19.2,2.639-28.281s.768-18.06.906-27.1q.118-8.114.138-16.287c4.234-1.516,8.153-3.466,12.486-5.3C211.522,258.972,211.286,249.972,206.953,244.339Z" transform="translate(111.225 196.895)" fill="#ff4874"/>
    <path id="Path_2863" data-name="Path 2863" d="M349.293,244.339a8.449,8.449,0,0,0-2.147-2.816,20.856,20.856,0,0,0-13.156-4.943,518.512,518.512,0,0,0-5.908-74.306c-1.241-7.878-10.536-12.6-17.725-11.541-7.543,1.142-14.377,7.681-13.983,15.755,1.182,23.928,2.442,47.837,2.678,71.8q-7.267.354-14.593.512c-2.915,0-5.908-.158-8.981-.177a14.79,14.79,0,0,1-.3-1.792c-.1-.729-.158-1.457-.236-2.166a11.637,11.637,0,0,0,0-1.438c-.394-5.79-.827-11.58-1.241-17.351-.926-14.928-1.4-29.876-1.26-44.844.2-21.565-33.066-21.545-33.48,0-.492,26.981,0,54.829,4.352,81.534a23.515,23.515,0,0,0,12.348,17.922c6.519,3.427,14.239,3.289,21.408,3.309,9.138,0,18.3-.315,27.414-.886-.177,6.617-.433,13.215-.748,19.832-.335,7.307-.65,14.613-1.064,21.92-.473,8.212-1.615,16.287-.256,24.421,1,6.105,8.016,10.517,13.786,10.517a14.751,14.751,0,0,0,13.786-10.517c2.8-8.665,2.186-19.2,2.639-28.281s.768-18.06.906-27.1q.118-8.114.138-16.287c4.234-1.516,8.153-3.466,12.486-5.3C353.862,258.972,353.625,249.972,349.293,244.339Z" transform="translate(249.192 196.895)" fill="#ff4874"/>
    <path id="Path_2864" data-name="Path 2864" d="M171.487,253.151a182.941,182.941,0,0,0,8.587,42.5c3.624,10.871,9.04,21.408,18.434,28.379,9.847,7.346,26.173,10.615,38.285,6.991,27.454-8.212,37.419-34.13,38.463-56.916.394-7.7,2.383-44.568,1.969-51.855-.67-12.112-9.473-63.711-55.833-63.711C167.272,158.54,169.951,234.54,171.487,253.151Z" transform="translate(183.342 204.607)" fill="#e0b7a6"/>
    <path id="Path_2865" data-name="Path 2865" d="M171.509,252.881a188.846,188.846,0,0,0,8.291,42.48c3.506,10.891,8.744,21.408,17.725,28.379,9.552,7.346,25.307,10.635,37.005,6.991,26.548-8.212,36.06-34.13,37.183-56.916.394-7.7,2.3-44.568,1.969-51.855-.67-12.112-9.158-63.691-53.982-63.691C167.433,158.27,170.013,234.25,171.509,252.881Z" transform="translate(183.378 204.345)" fill="#f4dbce"/>
    <path id="Path_2866" data-name="Path 2866" d="M285.088,236.661c1.694-22.294-8.823-50.4-22.215-66.625-10.5-12.7-28.694-17.626-45.139-14.3-14.692,2.974-28.143,10.576-36.237,23.5a103.2,103.2,0,0,0-14.042,59.949c.532,5.593,5.731,5.908,6.558,11.462.236,1.713.906,5.672,1,4.136,1.3-20.226,5.4-44.9,19.359-60.717,7.051-7.878,15.48-11.3,25.13-15.125,11.127-4.411,15.755-9.414,18.04-8.665,3.742,1.221,6.381,10.4,19.2,21.25,11.048,9.315,20.915,36.277,24.322,50.319C281.425,243.278,284.989,238.2,285.088,236.661Z" transform="translate(179.752 200.911)" fill="#013e4c"/>
    <path id="Path_2867" data-name="Path 2867" d="M193.613,198.64c-1.28-1.516-2.678-2.9-3.939-4.411.788-1.26,1.6-2.521,2.383-3.8,1.438-2.3-2.088-5.18-3.939-2.974q-.945,1.2-1.832,2.481c-.354-.394-2.58-2.6-3.013-2.934-1.674-1.26-3.683.807-3.289,2.5a26.251,26.251,0,0,0,3.486,5.042,52.743,52.743,0,0,0-2.738,5.908c-.886,2.3,2.639,3.545,3.939,1.635.709-1.123,1.438-2.245,2.166-3.368a27.434,27.434,0,0,0,3.309,3.447,2.472,2.472,0,0,0,3.466-3.525Z" transform="translate(192.116 231.821)" fill="#013e4c"/>
    <path id="Path_2868" data-name="Path 2868" d="M220.77,199.106a27.748,27.748,0,0,0-3.781-4.569c1.142-1.812,2.3-3.6,3.387-5.436a2.225,2.225,0,0,0-3.466-2.678,48.716,48.716,0,0,0-3.506,4.156,31.92,31.92,0,0,0-2.895-2.757c-1.812-1.5-4.884.394-3.447,2.678a39.038,39.038,0,0,0,3.407,4.49,37.182,37.182,0,0,0-3.092,6.617c-.906,2.718,3.033,4.136,4.49,1.969.827-1.32,1.556-2.678,2.285-4.057a20.434,20.434,0,0,0,2.659,2.718C218.9,203.872,222.385,201.725,220.77,199.106Z" transform="translate(218.054 231.08)" fill="#013e4c"/>
    <path id="Path_2869" data-name="Path 2869" d="M213.251,223.6a8.783,8.783,0,0,1-2.285,2.993c1.3,2.777-3.624,2.127-8.055,2.225-3.072,0-6.046.473-7.188-.354a2.521,2.521,0,0,1-2.994-.354,6.656,6.656,0,0,0,1.694,3.19c1.28,1.4,5.081.453,8.784.394s7.307.788,8.429,0C214.61,229.626,215.812,226.574,213.251,223.6Z" transform="translate(204.52 267.677)" fill="#cc2353"/>
    <path id="Path_2870" data-name="Path 2870" d="M210.635,224.47a13.9,13.9,0,0,0-15.46-.374,2.639,2.639,0,0,0-1.044,1.162c-1.969.906-2.107,4.293.354,4.707a42.441,42.441,0,0,0,15.519-.65,2.678,2.678,0,0,0,.63-4.845Z" transform="translate(204.438 266.059)" fill="#fff"/>
    <path id="Path_2871" data-name="Path 2871" d="M212.194,223.94c-3.663-3.348-10.753-3.939-15.558-1.674-4.471,2.166-5.79,6.6-2.521,10.182,1.28,1.4,5.081.433,8.784.374s7.307.788,8.429,0C214.557,230.577,215.719,227.17,212.194,223.94Zm-1.6,3.624c1.556,2.974-3.466,2.3-8,2.383s-9.04,1-7.326-2.718c1.4-3.053,7.464-3.584,11.009-2.8a7.168,7.168,0,0,1,4.313,3.131Z" transform="translate(204.1 265.072)" fill="#e0466b"/>
    <path id="Path_2872" data-name="Path 2872" d="M206.74,207.8c-.256-.965-1.418,2.324-1.477,3.269a31.7,31.7,0,0,0,.394,4.1,3.939,3.939,0,0,1-.847,2.718,5.762,5.762,0,0,0-1.635.158.512.512,0,0,0-.236.847c1.556,1.635,4.549.532,5.475-1.241C209.675,215.221,207.508,210.632,206.74,207.8Z" transform="translate(214.28 252.187)" fill="#ed4f7d"/>
    <path id="Path_2873" data-name="Path 2873" d="M195.051,217.021c-.847-.414-2.363-1.024-2.56-2.088s1.024-1.694,1.438-2.541a.847.847,0,0,0-.926-1.221,3.248,3.248,0,0,0-.926.414,17.013,17.013,0,0,0,.709-1.969c.158-.591-1.083-2.3-1.28-1.753a19.438,19.438,0,0,0-1.6,7.878c.453,2.442,2.363,3.151,4.628,3.171a1.024,1.024,0,0,0,.512-1.891Z" transform="translate(201.786 252.317)" fill="#ed4f7d"/>
    <path id="Path_2874" data-name="Path 2874" d="M211.7,212.788c-.847-2.186-3.939-1.969-5.751-1.635a18.926,18.926,0,0,0-7.779,4.924.709.709,0,0,0-.276.551.492.492,0,0,0,.394.748h0a1.083,1.083,0,0,0,1.063,0,38.071,38.071,0,0,1,4.274-.729c1.792-.236,3.6-.118,5.376-.355S212.43,214.659,211.7,212.788Z" transform="translate(209.457 255.407)" fill="#00373a"/>
    <path id="Path_2875" data-name="Path 2875" d="M203.7,217.256a21.466,21.466,0,0,0-7.307-5.278c-1.615-.867-4.333-2.422-5.593-.177a3.013,3.013,0,0,0,2.127,4.156c1.516.532,3.23.433,4.786.827s3.466.748,4.943,1.26C203.488,218.3,204.276,217.945,203.7,217.256Z" transform="translate(202.408 255.115)" fill="#00373a"/>
    <path id="Path_2876" data-name="Path 2876" d="M220.3,227.05a122.1,122.1,0,0,0-13.116-33.126,2.383,2.383,0,0,0-3.7-.335c-6.775,9.276-9.965,20.7-13.077,31.747a2.954,2.954,0,0,0,.217,2.856,2.422,2.422,0,0,0,1.438.611c4.215,1.694,9.571,7.681,13.116,7.681,3.939,0,8.291-7.031,13.294-7.031a1.969,1.969,0,0,0,1.832-2.4Z" transform="translate(202.002 237.877)" fill="#ed4f7d"/>
    <path id="Path_2877" data-name="Path 2877" d="M189.206,202.664a10.339,10.339,0,0,0-6.6-.3c-3.368.374-6.657,1.969-6.282,4.057a1.654,1.654,0,0,0-.1.827c.158,1.379,1.5,1.969,2.718,2.147,2.934,1.5,7.878.689,10.4-.492a3.269,3.269,0,0,0-.138-6.243Z" transform="translate(188.507 246.704)" fill="#cc2353"/>
    <path id="Path_2878" data-name="Path 2878" d="M218.721,202.519c-1.969-.256-5.908-.748-6.2,2.127s4.1,4.156,6.3,4.372h1.024c2.068.217,6.42-.177,6.243-3.171S220.69,202.795,218.721,202.519Z" transform="translate(223.688 247.046)" fill="#cc2353"/>
    <path id="Path_2879" data-name="Path 2879" d="M188.826,202.034a10.339,10.339,0,0,0-6.6-.3c-3.368.374-6.657,1.969-6.282,4.057a1.713,1.713,0,0,0,0,.847c.158,1.359,1.5,1.871,2.718,2.147,2.954,1.477,7.878.689,10.4-.512a3.269,3.269,0,0,0-.236-6.243Z" transform="translate(188.198 246.093)" fill="#e55772"/>
    <path id="Path_2880" data-name="Path 2880" d="M218.371,201.9c-1.969-.256-5.908-.768-6.2,2.107s4.1,4.175,6.3,4.392h1.024c2.088.217,6.42-.158,6.243-3.171S220.34,202.158,218.371,201.9Z" transform="translate(223.348 246.442)" fill="#e55772"/>
    <path id="Path_2881" data-name="Path 2881" d="M268.9,233.113c.945-8.784-8.764-13.55-16.169-14.672l-1.438-.177a45.3,45.3,0,0,0-29.778,3.663,29.77,29.77,0,0,0-3.407,1.969c-3.939,2.265-10.182,8.981-7.661,15.086,1.615,3.939,6.991,5.258,11.029,6.381,7.976,2.186,16.484,1.674,24.578.551q6.223-.847,12.407-2.147a16.267,16.267,0,0,0,7.878-3.151,8.114,8.114,0,0,0,2.56-7.5Z" transform="translate(221.13 261.492)" fill="#b8c7c9"/>
    <path id="Path_2882" data-name="Path 2882" d="M267.139,231.915c.965-8.784-8.764-13.55-16.169-14.672l-1.438-.177a45.3,45.3,0,0,0-29.8,3.663,29.775,29.775,0,0,0-3.407,2.068c-3.939,2.265-10.182,8.98-7.661,15.086,1.615,3.939,6.991,5.258,11.029,6.381,7.878,2.186,16.484,1.674,24.578.551,4.155-.571,8.311-1.28,12.407-2.147a16.268,16.268,0,0,0,7.878-3.151,8.114,8.114,0,0,0,2.58-7.6Z" transform="translate(219.404 260.327)" fill="#fff"/>
    <path id="Path_2883" data-name="Path 2883" d="M226.016,223.792a5.022,5.022,0,0,0-2.659-3.289,3.939,3.939,0,0,0-2.147-.236.63.63,0,0,0-.729,0,8.252,8.252,0,0,0-2.678,8.606c.709,2.481,3.466,6.381,6.44,4.313C226.844,231.355,226.863,226.49,226.016,223.792Zm-3.584,7.878c-1.969,0-2.954-3.446-3.072-4.864a6.913,6.913,0,0,1,.945-3.939,1.1,1.1,0,0,0,.335-.177c2.147-1.615,3.407,1.241,3.643,3.013C224.52,227,224.618,231.67,222.432,231.67Z" transform="translate(228.524 264.334)" fill="#013e4c"/>
    <path id="Path_2884" data-name="Path 2884" d="M230.409,224.251c-.512-2.659-2.974-5.514-5.652-3.939l-.138.1a3.289,3.289,0,0,0-1.5,2.619,36.215,36.215,0,0,0-.512,5.908c0,3.171,2.6,6.066,5.593,4.136S230.96,227.2,230.409,224.251Zm-2.659,6.519a1.654,1.654,0,0,1-2.915-.276,5.909,5.909,0,0,1-.256-2.934,12.861,12.861,0,0,1,.689-5.278h.217C229.168,220.9,229.424,228.9,227.75,230.769Z" transform="translate(233.486 264.053)" fill="#013e4c"/>
    <path id="Path_2885" data-name="Path 2885" d="M232.185,220.112a3.053,3.053,0,0,0-4.195,2.521,20.029,20.029,0,0,0,.276,4.333v.689a.965.965,0,0,0,0,.67,21.037,21.037,0,0,0,.433,3.348.807.807,0,0,0,1.576-.217,15.756,15.756,0,0,0-.1-2.718,4.884,4.884,0,0,0,3.939-3.131,4.254,4.254,0,0,0-1.93-5.495Zm.394,4.136a2.934,2.934,0,0,1-2.5,2.462,9.729,9.729,0,0,1-.138-4.037,1.162,1.162,0,0,1,1.969-.453,2.265,2.265,0,0,1,.67,2.009Z" transform="translate(238.682 264.075)" fill="#013e4c"/>
    <path id="Path_2886" data-name="Path 2886" d="M238.157,228.632a4.116,4.116,0,0,0-2.5-2.915c-.867-.473-1.772-1.024-1.812-2.127a1.674,1.674,0,0,1,1.969-1.654c.729,0,1.3-.827.551-1.221-2.915-1.536-5.16,1.969-3.939,4.49a4.352,4.352,0,0,0,1.339,1.536,8.9,8.9,0,0,1,2.147,1.438,1.4,1.4,0,0,1-.808,2.265,10.459,10.459,0,0,1-3.013-.374.807.807,0,0,0-.414,1.516C234.258,233.2,238.63,232.118,238.157,228.632Z" transform="translate(241.867 264.516)" fill="#013e4c"/>
    <path id="Path_2887" data-name="Path 2887" d="M214.373,225.9a1.162,1.162,0,0,0-1.379-.138,1.123,1.123,0,0,0-.532,1.3.926.926,0,0,0,.433.551h0a1,1,0,0,0,.63.236,1.162,1.162,0,0,0,1.083-.827,1.241,1.241,0,0,0-.236-1.123Z" transform="translate(223.604 269.612)" fill="#013e4c"/>
    <path id="Path_2888" data-name="Path 2888" d="M216.465,226.551a1.2,1.2,0,0,0-1.3-.847,1.123,1.123,0,0,0-.985,1.142,1.26,1.26,0,0,0,.394.827.846.846,0,0,0,.217.236.886.886,0,0,0,1.28,0A1.4,1.4,0,0,0,216.465,226.551Z" transform="translate(225.313 269.708)" fill="#013e4c"/>
    <path id="Path_2889" data-name="Path 2889" d="M218.3,226.02a.965.965,0,0,0-.807-.453H217.1a.57.57,0,0,0-.256,0,1.083,1.083,0,0,0-.965.807,1.142,1.142,0,0,0,0,.807,1.123,1.123,0,0,0,.65.473,1.438,1.438,0,0,0,1.674-.67.945.945,0,0,0,.1-.965Z" transform="translate(226.887 269.57)" fill="#013e4c"/>
    <path id="Path_2890" data-name="Path 2890" d="M157.669,168.136a4.688,4.688,0,0,0-.965-.335,2.4,2.4,0,0,0-2.344,3.939,2.541,2.541,0,0,0,2.344.611,3.132,3.132,0,0,0,.965-.335,2.284,2.284,0,0,0,0-3.88Z" transform="translate(166.732 213.523)" fill="#9eb4b5"/>
    <path id="Path_2891" data-name="Path 2891" d="M154.339,227.9a2.324,2.324,0,1,0,2.11,2.314,2.324,2.324,0,0,0-2.11-2.314Z" transform="translate(165.257 271.846)" fill="#9eb4b5"/>
    <path id="Path_2892" data-name="Path 2892" d="M266.338,220.069h-.453a2.265,2.265,0,0,0,0,4.53h.453a2.285,2.285,0,1,0,0-4.569Z" transform="translate(273.241 264.216)" fill="#9eb4b5"/>
    <path id="Path_2893" data-name="Path 2893" d="M249.42,232.77a2.127,2.127,0,0,0-2.383-.414,2.5,2.5,0,0,0-1.792,1.457,2.363,2.363,0,0,0,.512,2.619,2.4,2.4,0,0,0,4.077-1.319A1.969,1.969,0,0,0,249.42,232.77Z" transform="translate(255.241 275.976)" fill="#9eb4b5"/>
    <path id="Path_2894" data-name="Path 2894" d="M266.28,176.14a6.145,6.145,0,0,0-1.024.158,2.127,2.127,0,0,0-1.576,2.068,2.225,2.225,0,0,0,1.576,2.088,4.571,4.571,0,0,0,1.024.138,2.225,2.225,0,1,0,0-4.451Z" transform="translate(273.3 221.669)" fill="#9eb4b5"/>
    <path id="Path_2895" data-name="Path 2895" d="M231.865,161.8a2.225,2.225,0,1,0,2.225,2.226,2.225,2.225,0,0,0-2.225-2.226Z" transform="translate(240.301 207.768)" fill="#9eb4b5"/>
    <path id="Path_2896" data-name="Path 2896" d="M244.864,214.26a2.3,2.3,0,1,0,2.3,2.3A2.3,2.3,0,0,0,244.864,214.26Z" transform="translate(252.826 258.623)" fill="#9eb4b5"/>
    <path id="Path_2897" data-name="Path 2897" d="M121.753,222.3a2.344,2.344,0,0,0-3.939,0,2.54,2.54,0,0,0-.354,1.635,2.5,2.5,0,0,0,.689,1.654,2.265,2.265,0,0,0,1.654.689,2.4,2.4,0,0,0,2.363-2.344,2.816,2.816,0,0,0-.414-1.635Z" transform="translate(131.533 265.375)" fill="#9eb4b5"/>
    <path id="Path_2898" data-name="Path 2898" d="M124.243,187.8a2.038,2.038,0,1,0,2.038,2.038A2.038,2.038,0,0,0,124.243,187.8Z" transform="translate(136.152 232.972)" fill="#9eb4b5"/>
    <path id="Path_2899" data-name="Path 2899" d="M158.05,187.3H157.6a2.147,2.147,0,0,0,0,4.293h.453a2.186,2.186,0,1,0,0-4.352Z" transform="translate(168.38 232.425)" fill="#9eb4b5"/>
    <path id="Path_2900" data-name="Path 2900" d="M157.467,167.721a4.469,4.469,0,0,0-.985-.335,2.5,2.5,0,0,0-2.344.63,2.442,2.442,0,0,0-.709,1.694,2.481,2.481,0,0,0,.709,1.694,2.56,2.56,0,0,0,2.344.63,4.473,4.473,0,0,0,.985-.335,2.324,2.324,0,0,0,0-3.978Z" transform="translate(166.422 213.111)" fill="#fff"/>
    <path id="Path_2901" data-name="Path 2901" d="M154.039,227.48a2.324,2.324,0,1,0,2.11,2.314A2.324,2.324,0,0,0,154.039,227.48Z" transform="translate(164.966 271.439)" fill="#fff"/>
    <path id="Path_2902" data-name="Path 2902" d="M265.984,219.669h-.473a2.265,2.265,0,0,0,0,4.51h.473a2.3,2.3,0,0,0,0-4.589Z" transform="translate(273.084 263.79)" fill="#fff"/>
    <path id="Path_2903" data-name="Path 2903" d="M249.142,232.347a2.127,2.127,0,0,0-2.363-.414,2.462,2.462,0,0,0-1.792,1.457,2.383,2.383,0,0,0,.492,2.619,2.462,2.462,0,0,0,2.344.63,2.541,2.541,0,0,0,1.753-1.969,2.088,2.088,0,0,0-.433-2.324Z" transform="translate(254.988 275.572)" fill="#fff"/>
    <path id="Path_2904" data-name="Path 2904" d="M266.029,175.769a6.064,6.064,0,0,0-1.044.158,2.186,2.186,0,0,0-1.576,1.969,2.245,2.245,0,0,0,1.576,2.088,6.07,6.07,0,0,0,1.044.158,2.245,2.245,0,0,0,0-4.471Z" transform="translate(273.038 221.213)" fill="#fff"/>
    <path id="Path_2905" data-name="Path 2905" d="M231.605,161.39a2.225,2.225,0,1,0,2.225,2.225,2.225,2.225,0,0,0-2.225-2.225Z" transform="translate(240.049 207.37)" fill="#fff"/>
    <path id="Path_2906" data-name="Path 2906" d="M244.594,213.84a2.3,2.3,0,1,0,2.3,2.3,2.3,2.3,0,0,0-2.3-2.3Z" transform="translate(252.564 258.216)" fill="#fff"/>
    <path id="Path_2907" data-name="Path 2907" d="M121.478,221.888a2.344,2.344,0,0,0-3.939,0,2.9,2.9,0,0,0,.335,3.289,2.521,2.521,0,0,0,1.674.689,2.422,2.422,0,0,0,2.344-2.363,2.58,2.58,0,0,0-.414-1.615Z" transform="translate(131.276 264.977)" fill="#fff"/>
    <path id="Path_2908" data-name="Path 2908" d="M124,187.38a2.038,2.038,0,1,0,2.038,2.038A2.038,2.038,0,0,0,124,187.38Z" transform="translate(135.919 232.565)" fill="#fff"/>
    <path id="Path_2909" data-name="Path 2909" d="M157.708,186.869h-.473a2.166,2.166,0,0,0,0,4.313h.473a2.186,2.186,0,0,0,0-4.352Z" transform="translate(168.21 232.032)" fill="#fff"/>
    <path id="Path_2910" data-name="Path 2910" d="M185.181,177.558a12.941,12.941,0,0,0-2.993,2.875,20.123,20.123,0,0,0-2.56,3.21,2.875,2.875,0,0,0,3.939,3.939,18.923,18.923,0,0,0,3.171-2.58,12.938,12.938,0,0,0,2.816-3.053,3.21,3.21,0,0,0-4.372-4.392Z" transform="translate(191.429 222.634)" fill="#00323a"/>
    <path id="Path_2911" data-name="Path 2911" d="M218.43,178.447a15.1,15.1,0,0,0-3.939-2.068c-1.319-.611-2.6-1.26-3.84-1.969a3.253,3.253,0,1,0-3.289,5.613,24.914,24.914,0,0,0,6.046,3.053,5.4,5.4,0,0,1,1.024.3,5.733,5.733,0,0,0,1.969.256C218.725,183.528,220.537,180.259,218.43,178.447Z" transform="translate(217.145 219.559)" fill="#00323a"/>
    <path id="Path_2912" data-name="Path 2912" d="M178.361,227.085a52.582,52.582,0,0,1-1.674-14.259c.2-4.333,1.969-9.355-.65-13.018a5.278,5.278,0,0,0-8.508-.67c-3.092,3.545-1.969,9.847-.512,13.786a53.43,53.43,0,0,0,9.552,15.243C177.278,229.015,178.6,228.03,178.361,227.085Z" transform="translate(178.181 242.174)" fill="#cc2353"/>
    <path id="Path_2913" data-name="Path 2913" d="M226.218,229.006a48.724,48.724,0,0,0,7.976-15.224c1.379-3.939,2.58-10.2-.512-13.786-2.481-2.836-4.884-5.022-7.72-2.737-1.792,1.457-1.832,25.268-1.832,30.683C224.13,228.967,225.509,229.912,226.218,229.006Z" transform="translate(234.959 241.218)" fill="#cc2353"/>
    <path id="Path_2914" data-name="Path 2914" d="M66.288,225.483a90.9,90.9,0,0,0-7.464-8.843,1.142,1.142,0,0,0-1.969.492q-.256,1.2-.414,2.422c-1.2-2.088-2.324-4.215-3.486-6.322a.551.551,0,0,0-1,.433,46.557,46.557,0,0,0,4.431,9.847A1.044,1.044,0,0,0,58.351,223a29.38,29.38,0,0,1,.256-2.954,57.1,57.1,0,0,0,5.829,6.775C65.382,227.787,67.036,226.625,66.288,225.483Z" transform="translate(68.025 257.365)" fill="#013e4c"/>
    <path id="Path_2915" data-name="Path 2915" d="M372.483,218.891c-3.348,1.142-6.617,2.7-9.847,4.175.551-1.457,1.1-2.915,1.674-4.352a.945.945,0,0,0-1.379-1.063c-3.171,2.245-6.4,4.451-9.473,6.854-.67.532.2,1.635.926,1.182,2.4-1.477,4.746-3.112,7.07-4.727l-1.418,3.624c-.335.867.729,1.359,1.379,1.083,3.939-1.694,8-3.21,11.816-5.2a.872.872,0,0,0-.748-1.575Z" transform="translate(360.099 261.791)" fill="#013e4c"/>
    <path id="Path_2916" data-name="Path 2916" d="M374.495,229.784c-1.969-.335-3.939-.61-5.908-.867h0a.886.886,0,0,0-.433-1.635c-3.033-.414-6.046-.965-9.1-1.123a.532.532,0,0,0-.138,1.024,70.653,70.653,0,0,0,7.031,1.457l-.177.118c-.551.394-.63,1.536.217,1.674,2.7.433,5.4.926,8.114,1.26A.985.985,0,0,0,374.495,229.784Z" transform="translate(365.295 270.159)" fill="#013e4c"/>
    <path id="Path_2917" data-name="Path 2917" d="M210.114,226.093c-.571-6.046-4.293-27.788-6.991-32.318a1.753,1.753,0,0,0-2.186-.571c-1.438.591-7.149,24.972-7.169,31.136,0,3.939-.414,8,2.974,10.418C203.457,239.6,210.823,233.538,210.114,226.093Z" transform="translate(205.51 238.045)" fill="#cc2353"/>
    <path id="Path_2918" data-name="Path 2918" d="M354.29,230.883a1.241,1.241,0,0,0-.906-1.2,120.963,120.963,0,0,0-22.9-1.969c-.748,0-1,1.241-.177,1.379h.394a1.161,1.161,0,0,0,0,.512c1.5,5.908,11.639,11.639,17.823,9.67a5.416,5.416,0,0,0,2.659-1.2,1.477,1.477,0,0,0,1.221-1.339,12.8,12.8,0,0,0,1.891-5.849Z" transform="translate(337.387 271.659)" fill="#e0466b"/>
    <path id="Path_2919" data-name="Path 2919" d="M86.1,230.173c-1-1.851-3.722-1.339-5.455-1.4-4.195,0-8.528-.63-12.742-.453a1.458,1.458,0,0,0-1.5,0l-.217.158H65.72a.807.807,0,0,0-.551,1.28,16.13,16.13,0,0,0-1.26,5.908,5.081,5.081,0,0,0,.689,3.23,3.131,3.131,0,0,0,1.359,1.969c2.324,1.556,6.972.2,9.434-.354a17.193,17.193,0,0,0,8.252-4.136C84.961,235.038,87.226,232.261,86.1,230.173Z" transform="translate(79.602 272.054)" fill="#e0466b"/>
    <path id="Path_2920" data-name="Path 2920" d="M55.8,244.389a99.673,99.673,0,0,0,13.55,1.438,11.482,11.482,0,0,0,.551,5.16c-.177,1.182-.335,2.363-.512,3.565-.551,3.742,5,5.475,5.908,1.6l.236-1.241a25.2,25.2,0,0,0,4.51-.315c4.313-.571,9.237-.65,13.234-2.521a11.816,11.816,0,0,0,6.676-9.453c4.471-.256,8.961-.551,13.431-.945a349.379,349.379,0,0,0,38.108-5.239c.217.512.453,1.969.709,2.422,1.379,2.816,5.593.788,4.884-1.969A62.564,62.564,0,0,0,155,228.358c-.3-1.024-.591-2.974-.886-3.939-.807-2.856-5.613-2.383-5.317.729a52.734,52.734,0,0,0,.768,5.652,357.017,357.017,0,0,1-50.141,5.908,15.106,15.106,0,0,0-1.477-3.387c-4.057-6.657-11.817-9.433-19.359-10.438v-1.969c0-3.939-5.475-3.663-5.908,0-.394,3.21-.807,6.42-1.2,9.65a23.239,23.239,0,0,0-12.86-1.457c-3.269.61-2.147,5.2.748,5.436a67.479,67.479,0,0,1,7.188.532c1.418.276,2.816.768,4.215,1.064L70.26,239.6a2.679,2.679,0,0,1-.138,1.024,100.443,100.443,0,0,0-13.569-1.772C53.382,238.52,52.673,243.936,55.8,244.389Zm20.718,4.549a181.31,181.31,0,0,0,1.851-20.915c5.042,1.123,10.221,2.442,13.648,6.538a9,9,0,0,1,1.969,8.606c-1.083,3.131-3.939,4.057-6.913,4.569-2.383.433-7.72,1.969-10.142,1.319a.944.944,0,0,1-.414-.118Z" transform="translate(69.824 262.309)" fill="#013e4c"/>
    <path id="Path_2921" data-name="Path 2921" d="M303.441,237.6c1.024,1.969,4.864,1.969,5.317-.591.1-.512.177-1.024.276-1.536s.276-.492.394-.748c11.3,1.969,22.55,3.23,32.417,4.136,3.939.354,7.878.65,11.935.926a14.81,14.81,0,0,0,8.528,10.123c5.632,2.58,11.816,1.969,17.725.985a8.055,8.055,0,0,0,4.372,4.668c9.237,4.1,12.959-8.193,14.14-14.613,1.457-7.878,1.28-18.2-6.932-22.313a2.8,2.8,0,0,0-2.9,0,7.365,7.365,0,0,0-4.1,1.772,8.782,8.782,0,0,0-2.147,2.7c-8.665-3.21-25.09.709-28.379,10.477-6.4-.414-12.821-.945-19.2-1.654-7.248-.807-15.243-1.832-23.357-3.328a23.979,23.979,0,0,0,.3-5.317,3.033,3.033,0,0,0-3.663-2.777,2.619,2.619,0,0,0-2.422,1.438,41.73,41.73,0,0,0-3.171,13.372A2.481,2.481,0,0,0,303.441,237.6Zm82.262,0c.3-3.131-.236-11.915,3.505-13.589a12.466,12.466,0,0,1,4.175,10.851,49.9,49.9,0,0,1-1.083,8.665,1.972,1.972,0,0,0-.2-.768,2.738,2.738,0,0,0-1.871-1.969,2.619,2.619,0,0,0-2.5.67,2.54,2.54,0,0,0-.532,2.816,2.62,2.62,0,0,0,1.851,1.536,2.363,2.363,0,0,0,2.58-.453l.256-.3a8.311,8.311,0,0,1-2.462,4.293c-6.243,4.431-3.939-9.808-3.762-11.738Zm-26.528-1.26c.729-4.392,6.125-6.617,9.847-7.76A38.464,38.464,0,0,1,381,227.7c-.217,1.26-.355,2.521-.473,3.742a98.061,98.061,0,0,0-1.536,14,27.571,27.571,0,0,1-12.033.236c-4.195-1.1-8.606-4.451-7.819-9.315Z" transform="translate(310.976 262.476)" fill="#013e4c"/>
    <path id="Path_2922" data-name="Path 2922" d="M348.152,223.7a2.462,2.462,0,1,1-2.462,2.462,2.462,2.462,0,0,1,2.462-2.462Z" transform="translate(352.801 267.774)" fill="#013e4c"/>
  </g>
</svg>
