<svg xmlns="http://www.w3.org/2000/svg" width="379.745" height="296.46" viewBox="0 0 379.745 296.46">
  <g id="Group_2956" data-name="Group 2956" transform="translate(-530.127 -298.541)">
    <g id="rafiki" transform="translate(529.676 298.541)">
      <path id="Path_2923" data-name="Path 2923" d="M380.2,300.838H.451v.19H380.2Z" transform="translate(0 -38.676)" fill="#ebebeb"/>
      <path id="Path_2924" data-name="Path 2924" d="M184.731,230.281H38.081a4.337,4.337,0,0,1-4.329-4.336V19.8a4.337,4.337,0,0,1,4.329-4.3h146.65a4.336,4.336,0,0,1,4.336,4.337V225.945a4.336,4.336,0,0,1-4.336,4.336ZM38.081,15.649A4.147,4.147,0,0,0,33.942,19.8V225.945a4.147,4.147,0,0,0,4.139,4.146h146.65a4.155,4.155,0,0,0,4.147-4.146V19.8a4.155,4.155,0,0,0-4.147-4.147Z" transform="translate(-4.281 -1.992)" fill="#ebebeb"/>
      <path id="Path_2925" data-name="Path 2925" d="M373.252,230.281H226.594a4.344,4.344,0,0,1-4.336-4.336V19.8a4.344,4.344,0,0,1,4.336-4.3H373.252a4.336,4.336,0,0,1,4.321,4.3V225.945a4.336,4.336,0,0,1-4.321,4.336ZM226.594,15.649a4.154,4.154,0,0,0-4.146,4.147V225.945a4.153,4.153,0,0,0,4.146,4.146H373.252a4.153,4.153,0,0,0,4.147-4.146V19.8a4.154,4.154,0,0,0-4.147-4.147Z" transform="translate(-28.516 -1.992)" fill="#ebebeb"/>
      <path id="Path_2926" data-name="Path 2926" d="M389.018,309.136H365.041v.19h23.977Z" transform="translate(-46.873 -39.743)" fill="#ebebeb"/>
      <path id="Path_2927" data-name="Path 2927" d="M288.969,306.774H263.594v.19h25.375Z" transform="translate(-33.83 -39.44)" fill="#ebebeb"/>
      <path id="Path_2928" data-name="Path 2928" d="M393.509,317.232H346.094v.19h47.415Z" transform="translate(-44.437 -40.784)" fill="#ebebeb"/>
      <path id="Path_2929" data-name="Path 2929" d="M60.777,315.769H46.172v.189H60.777Z" transform="translate(-5.878 -40.596)" fill="#ebebeb"/>
      <path id="Path_2930" data-name="Path 2930" d="M93.7,315.769h-23v.189h23Z" transform="translate(-9.031 -40.596)" fill="#ebebeb"/>
      <path id="Path_2931" data-name="Path 2931" d="M207.114,312.091H165.676v.19h41.438Z" transform="translate(-21.242 -40.123)" fill="#ebebeb"/>
      <path id="Path_2932" data-name="Path 2932" d="M231.352,70.517,188.076,113.8V257.944H339.967V70.517Z" transform="translate(-24.121 -9.066)" fill="#fff"/>
      <path id="Path_2933" data-name="Path 2933" d="M339.906,258.293h-151.9a.411.411,0,0,1-.41-.41V113.739a.4.4,0,0,1,.121-.288L231.01,70.16a.432.432,0,0,1,.288-.121H339.906a.41.41,0,0,1,.157.031.416.416,0,0,1,.133.089.425.425,0,0,1,.089.133.421.421,0,0,1,.031.157V257.883a.423.423,0,0,1-.031.157.417.417,0,0,1-.089.132.413.413,0,0,1-.29.12Zm-151.48-.812H339.5V70.866H231.466l-43.04,43.04Z" transform="translate(-24.06 -9.004)" fill="#e0e0e0"/>
      <path id="Path_2934" data-name="Path 2934" d="M188.076,113.8l45.41,5.855-2.134-49.139Z" transform="translate(-24.121 -9.066)" fill="#e6e6e6"/>
      <path id="Path_2935" data-name="Path 2935" d="M188.076,113.8h43.276V70.517Z" transform="translate(-24.121 -9.066)" fill="#fff"/>
      <path id="Path_2936" data-name="Path 2936" d="M231.288,114.142H188a.417.417,0,0,1-.228-.068.41.41,0,0,1-.152-.183.4.4,0,0,1-.024-.234.4.4,0,0,1,.115-.206L231,70.159a.425.425,0,0,1,.448-.091.416.416,0,0,1,.251.38v43.291a.411.411,0,0,1-.41.4ZM189,113.329h41.887V71.443Z" transform="translate(-24.058 -9.005)" fill="#e0e0e0"/>
      <path id="Path_2937" data-name="Path 2937" d="M278.633,186.339l25.822-25.823a6.213,6.213,0,1,0-8.787-8.787l-25.823,25.822-25.822-25.822a6.213,6.213,0,0,0-8.788,8.787l25.823,25.823-25.823,25.822a6.214,6.214,0,0,0,8.788,8.788l25.822-25.823,25.823,25.823a6.213,6.213,0,1,0,8.787-8.788Z" transform="translate(-29.951 -19.273)" fill="#f0f0f0"/>
      <path id="Path_2938" data-name="Path 2938" d="M189.507,161.847a7.77,7.77,0,0,1-10.982,0l-24.92-24.927,10.983-10.983L189.507,150.9a7.77,7.77,0,0,1,0,10.952Z" transform="translate(-19.69 -16.191)" fill="#f0f0f0"/>
      <path id="Path_2939" data-name="Path 2939" d="M153.6,136.977l10.982-10.983,1.015,1.015a5.613,5.613,0,0,1,0,7.937l-3.045,3.045a5.612,5.612,0,0,1-7.938,0l-1.014-1.014Z" transform="translate(-19.69 -16.198)" fill="#e0e0e0"/>
      <path id="Path_2940" data-name="Path 2940" d="M71.952,44.288a53.924,53.924,0,1,0,17.5-11.7,53.923,53.923,0,0,0-17.5,11.7Zm73.185,73.184a49.539,49.539,0,1,1,10.74-16.073,49.543,49.543,0,0,1-10.74,16.073Z" transform="translate(-7.164 -3.661)" fill="#e0e0e0"/>
      <path id="Path_2941" data-name="Path 2941" d="M150.3,116.1a1.808,1.808,0,0,1-1.276-3.083,38.339,38.339,0,0,0,0-54.144,1.81,1.81,0,0,1-.479-2.018,1.828,1.828,0,0,1,.4-.611,1.808,1.808,0,0,1,2.63.077,41.94,41.94,0,0,1,0,59.24,1.813,1.813,0,0,1-1.277.539Z" transform="translate(-19.023 -7.162)" fill="#e0e0e0"/>
      <path id="Path_2942" data-name="Path 2942" d="M72.868,97.956a1.8,1.8,0,0,1-1.754-1.39,42.053,42.053,0,0,1,5.772-32.742,1.816,1.816,0,0,1,3.038,1.99,38.468,38.468,0,0,0-5.316,29.924,1.793,1.793,0,0,1-1.337,2.172,2.017,2.017,0,0,1-.4.045Z" transform="translate(-8.94 -8.1)" fill="#e0e0e0"/>
      <path id="Path_2943" data-name="Path 2943" d="M84.14,122.9a1.808,1.808,0,0,1-1.276-.532,41.616,41.616,0,0,1-7.975-11.119,1.8,1.8,0,1,1,3.235-1.595,38.353,38.353,0,0,0,7.291,10.162,1.807,1.807,0,0,1,0,2.552,1.834,1.834,0,0,1-1.276.532Z" transform="translate(-9.546 -13.968)" fill="#e0e0e0"/>
      <path id="Path_2944" data-name="Path 2944" d="M181.748,246.807l7.1,7.1L172.36,270.394a4.5,4.5,0,0,1-6.359,0l-.746-.747a4.495,4.495,0,0,1,0-6.359L181.742,246.8Z" transform="translate(-21.018 -31.729)" fill="#f0f0f0"/>
      <path id="Path_2945" data-name="Path 2945" d="M184.159,246.823l7.089,7.089-.338.338a4.078,4.078,0,0,1-5.768,0l-1.332-1.332a4.078,4.078,0,0,1,0-5.768l.338-.339Z" transform="translate(-23.42 -31.731)" fill="#e0e0e0"/>
      <path id="Path_2946" data-name="Path 2946" d="M245.405,202.616l-16.633,16.625a10.436,10.436,0,0,0,14.757,14.742l6.729-6.721A35.75,35.75,0,0,0,245.405,202.616Z" transform="translate(-28.993 -26.049)" fill="#f0f0f0"/>
      <path id="Path_2947" data-name="Path 2947" d="M245.181,216.231a34.89,34.89,0,1,0-8.487,25.313A34.893,34.893,0,0,0,245.181,216.231Zm-66.767,4.648a32.034,32.034,0,1,1,10.931,21.945A32.034,32.034,0,0,1,178.414,220.879Z" transform="translate(-22.502 -23.623)" fill="#e0e0e0"/>
      <path id="Path_2948" data-name="Path 2948" d="M193.767,244.32a27.025,27.025,0,0,1-9.258-18.547,1.17,1.17,0,1,1,2.332-.159,24.79,24.79,0,0,0,26.385,22.975,1.165,1.165,0,0,1,.159,2.324,26.99,26.99,0,0,1-19.618-6.592Z" transform="translate(-23.662 -28.859)" fill="#e0e0e0"/>
      <path id="Path_2949" data-name="Path 2949" d="M241.336,214.164a1.145,1.145,0,0,1-.357-.57,24.853,24.853,0,0,0-12.357-15.266,1.17,1.17,0,0,1,1.079-2.073,27.2,27.2,0,0,1,13.526,16.709,1.173,1.173,0,0,1,.035.454,1.17,1.17,0,0,1-.44.777,1.184,1.184,0,0,1-1.486-.031Z" transform="translate(-29.259 -25.217)" fill="#e0e0e0"/>
      <path id="Path_2950" data-name="Path 2950" d="M212.514,194.835a1.185,1.185,0,0,1-.395-.805,1.171,1.171,0,0,1,1.079-1.245,27.267,27.267,0,0,1,8.81.828,1.175,1.175,0,0,1,.717.546,1.176,1.176,0,0,1-.08,1.307,1.182,1.182,0,0,1-.778.454,1.183,1.183,0,0,1-.459-.028,24.653,24.653,0,0,0-8.042-.76,1.2,1.2,0,0,1-.851-.3Z" transform="translate(-27.212 -24.776)" fill="#e0e0e0"/>
      <path id="Path_2951" data-name="Path 2951" d="M196.609,337.659c81.328,0,147.258-3.849,147.258-8.6s-65.93-8.6-147.258-8.6-147.258,3.849-147.258,8.6S115.281,337.659,196.609,337.659Z" transform="translate(-6.287 -41.2)" fill="#f5f5f5"/>
      <path id="Path_2952" data-name="Path 2952" d="M120.186,93.628c-6.122,6.16,4.283,15.721-2.59,20.111,5.612,2.817,25.283,6.395,30.379-4.687-3.714-2.885-1.131-9.98-4.557-16.792C138.292,82.16,114.064,86.633,120.186,93.628Z" transform="translate(-15.06 -11.102)" fill="#263238"/>
      <path id="Path_2953" data-name="Path 2953" d="M120.422,94.515c-1.907-.319-8.354,2.886-3.555,11.491,3.866,6.957.646,7.451.646,7.451s3.8.106,1.519-5.066C116.617,102.869,115.485,97.142,120.422,94.515Z" transform="translate(-14.743 -12.148)" fill="#263238"/>
      <path id="Path_2954" data-name="Path 2954" d="M169.133,153.669a1.868,1.868,0,0,0-2.507-.759l-.448.235c-.144.076-.417.258-.638.388s-.478.273-.722.395a11.789,11.789,0,0,1-1.481.622,9.312,9.312,0,0,1-2.925.555,8.039,8.039,0,0,1-2.7-.433,9.719,9.719,0,0,1-1.587-.76c-.654-1.443-1.276-2.9-1.807-4.405-.646-1.754-1.216-3.547-1.717-5.362s-.942-3.653-1.306-5.5c-.19-.919-.357-1.845-.509-2.764l-.2-1.374c-.069-.441-.13-.942-.167-1.291v-.152a3.817,3.817,0,0,0-7.6.759c.053.646.1,1.139.167,1.678s.145,1.056.22,1.58c.167,1.048.357,2.081.57,3.114a58.211,58.211,0,0,0,1.595,6.077c.3,1,.661,1.989,1,2.985s.76,1.967,1.193,2.932a54.931,54.931,0,0,0,2.817,5.689l.092.166a2.946,2.946,0,0,0,1.176,1.17,15.4,15.4,0,0,0,4.6,1.625,12.789,12.789,0,0,0,4.983-.106,13.148,13.148,0,0,0,6.144-3.334,6.294,6.294,0,0,0,.76-.805c.213-.281.471-.547.759-.942a1.868,1.868,0,0,0,.236-1.983Z" transform="translate(-18.301 -16.665)" fill="#ff8b7b"/>
      <path id="Path_2955" data-name="Path 2955" d="M177.678,149.06h-.22a4.733,4.733,0,0,0-3.8,1.777l-3.669,4.6v3.144c2.947,1.169,6.684-1.983,6.684-1.983l1.891-.478a2.651,2.651,0,0,0,1.983-2.946l-.274-1.846a2.643,2.643,0,0,0-2.6-2.271Z" transform="translate(-21.797 -19.163)" fill="#ff8b7b"/>
      <path id="Path_2956" data-name="Path 2956" d="M150,128.479c2.453,2.522,2.6,10.049,2.6,10.049l-9.812,7.9s-4.033-11.165-1.8-15.106C142.884,127.978,146.87,125.267,150,128.479Z" transform="translate(-17.982 -16.333)" fill="#ff4874"/>
      <g id="Group_2953" data-name="Group 2953" transform="translate(122.336 110.708)" opacity="0.2">
        <path id="Path_2957" data-name="Path 2957" d="M150,128.479c2.453,2.522,2.6,10.049,2.6,10.049l-9.812,7.9s-4.033-11.165-1.8-15.106C142.884,127.978,146.87,125.267,150,128.479Z" transform="translate(-140.318 -127.041)" fill="#fff" opacity="0.2"/>
      </g>
      <path id="Path_2958" data-name="Path 2958" d="M132.795,320.686l5.423.593.744-14.734-5.423-.6Z" transform="translate(-17.014 -39.333)" fill="#ff8b7b"/>
      <path id="Path_2959" data-name="Path 2959" d="M138.959,319.48h-6.373a.493.493,0,0,0-.509.463l-.425,6.023a1.208,1.208,0,0,0,1.177,1.207h15.122c2.779,0,2.787-2.817,1.587-3.075-5.4-1.14-7.5-2.719-9.41-4.223a1.9,1.9,0,0,0-1.169-.395Z" transform="translate(-16.867 -41.073)" fill="#263238"/>
      <path id="Path_2960" data-name="Path 2960" d="M139.01,306.554l-.387,7.595H133.17l.417-8.195Z" transform="translate(-17.063 -39.334)" opacity="0.2"/>
      <path id="Path_2961" data-name="Path 2961" d="M140.432,171.377s4.694,39.289,4.694,56.757c-3.7,24.3-6.835,66.957-6.835,66.957l-7.5-.2s-3.41-46.45-.251-66.508c-4.048-17.97-9.046-59.438-9.046-59.438Z" transform="translate(-15.561 -21.72)" fill="#263238"/>
      <path id="Path_2962" data-name="Path 2962" d="M126.24,184.287a22.506,22.506,0,0,0-2.6,1.352c1.033,7.755,2.392,17.514,3.835,26.522C129.939,204.747,128.609,188.449,126.24,184.287Z" transform="translate(-15.838 -23.692)" opacity="0.2"/>
      <path id="Path_2963" data-name="Path 2963" d="M65.406,305.309l4.473,3.121L77.6,295.854l-4.473-3.122Z" transform="translate(-8.351 -37.634)" fill="#ff8b7b"/>
      <path id="Path_2964" data-name="Path 2964" d="M70.358,308.07l-3.8-5.111a.485.485,0,0,0-.668-.129L60.8,306.1a1.2,1.2,0,0,0-.266,1.664c1.587,2.165,1.618,2.18,3.615,4.869,1.238,1.648,3.706,4.966,5.408,7.253s3.927.554,3.41-.57c-2.278-5-2.278-7.595-2.233-10.056a1.93,1.93,0,0,0-.38-1.185Z" transform="translate(-7.696 -38.922)" fill="#263238"/>
      <path id="Path_2965" data-name="Path 2965" d="M78.095,295.854l-3.972,6.486-4.792-2.613,4.3-7Z" transform="translate(-8.855 -37.634)" opacity="0.2"/>
      <path id="Path_2966" data-name="Path 2966" d="M95.11,300.466c-3.881,0-11.962,0-12.1-5.711-.106-4.481,5.438-6.341,10.223-6.569a4.04,4.04,0,0,1,4.23,3.843v.3c5.423-.258,8.931-1.443,10.215-3.463,2.894-4.557-2.651-16.321-8.005-27.691-6.3-13.375-13.443-28.527-13.58-43.04a4.039,4.039,0,0,1,4-4.078h0a4.048,4.048,0,0,1,4.041,4c.122,12.744,6.835,27.045,12.805,39.668,6.835,14.567,12.8,27.152,7.519,35.468C111.4,298.089,105.059,300.466,95.11,300.466Z" transform="translate(-10.614 -27.52)" fill="#ff4874"/>
      <path id="Path_2967" data-name="Path 2967" d="M127.722,170.467s-12.957,44.9-19.283,61.185c-12.259,21.311-32.6,53.924-32.6,53.924l-6.494-3.8s15.19-37.671,25.4-55.215c2.742-18.228,13.109-58.678,13.109-58.678Z" transform="translate(-8.857 -21.584)" fill="#263238"/>
      <path id="Path_2968" data-name="Path 2968" d="M73.026,312.751a2.169,2.169,0,0,0,1.124.919.76.76,0,0,0,.759-.251.531.531,0,0,0,.167-.464c-.091-.911-2.446-2.1-2.916-2.324a.127.127,0,0,0-.086,0,.122.122,0,0,0-.066.055.177.177,0,0,0-.028.095.172.172,0,0,0,.028.095,11.229,11.229,0,0,0,1.018,1.876Zm1.618,0a.631.631,0,0,1,.129.288.181.181,0,0,1-.011.087.178.178,0,0,1-.05.072.528.528,0,0,1-.228.152.52.52,0,0,1-.273.016c-.5-.1-1.162-.912-1.8-2.2a8.006,8.006,0,0,1,2.233,1.549Z" transform="translate(-9.196 -39.934)" fill="#ff4874"/>
      <path id="Path_2969" data-name="Path 2969" d="M71.965,310.78l.046.038c.759.417,2.734.759,3.167.129a.662.662,0,0,0-.038-.76c-.76-1.344-3.038.236-3.137.3a.183.183,0,0,0-.068.152A.251.251,0,0,0,71.965,310.78Zm2.886-.44a.694.694,0,0,1,.061.084c.084.144.1.25.053.311-.251.364-1.709.235-2.559-.1C72.975,310.294,74.3,309.6,74.851,310.34Z" transform="translate(-9.19 -39.809)" fill="#ff4874"/>
      <path id="Path_2970" data-name="Path 2970" d="M143.917,320.675a2.2,2.2,0,0,0,1.413-.356.756.756,0,0,0,.235-.76.566.566,0,0,0-.273-.417c-.76-.464-3.137.714-3.6.957a.13.13,0,0,0-.061.152.2.2,0,0,0,.056.083.2.2,0,0,0,.088.046,10.576,10.576,0,0,0,2.142.3Zm.942-1.313a.576.576,0,0,1,.311.068c.038,0,.076.053.092.145a.513.513,0,0,1-.015.274.519.519,0,0,1-.152.227c-.372.342-1.42.387-2.833.137a7.92,7.92,0,0,1,2.559-.851Z" transform="translate(-18.15 -41.016)" fill="#ff4874"/>
      <path id="Path_2971" data-name="Path 2971" d="M141.768,320.2h.053c.76-.349,2.24-1.739,2-2.461a.66.66,0,0,0-.607-.4c-1.519-.174-1.625,2.575-1.633,2.689a.18.18,0,0,0,.023.086.191.191,0,0,0,.061.065.182.182,0,0,0,.106.023Zm1.367-2.582h.106c.159,0,.258.068.281.144.145.418-.828,1.519-1.61,2,.068-.661.311-2.142,1.237-2.142Z" transform="translate(-18.144 -40.796)" fill="#ff4874"/>
      <path id="Path_2972" data-name="Path 2972" d="M113.541,162.113l25.869,3.311c5.833-19.64,7.754-29.126,8.271-33.691a4.958,4.958,0,0,0-3.433-5.317c-1.519-.486-3.478-1.063-5.422-1.519-.661-.175-1.337-.335-2-.486a82.791,82.791,0,0,0-11.742-1.519c-.585-.053-1.162-.084-1.746-.114-1.147-.06-2.279-.076-3.311-.076a5.581,5.581,0,0,0-5.567,6.076c.2,2.279.364,4.4.485,6.342.289,4.557.38,8.2.312,11.392a98.215,98.215,0,0,1-1.717,15.6Z" transform="translate(-14.539 -15.775)" fill="#ff4874"/>
      <g id="Group_2954" data-name="Group 2954" transform="translate(99.002 106.928)" opacity="0.3">
        <path id="Path_2973" data-name="Path 2973" d="M113.541,162.113l25.869,3.311c5.833-19.64,7.754-29.126,8.271-33.691a4.958,4.958,0,0,0-3.433-5.317c-1.519-.486-3.478-1.063-5.422-1.519-.661-.175-1.337-.335-2-.486a82.791,82.791,0,0,0-11.742-1.519c-.585-.053-1.162-.084-1.746-.114-1.147-.06-2.279-.076-3.311-.076a5.581,5.581,0,0,0-5.567,6.076c.2,2.279.364,4.4.485,6.342.289,4.557.38,8.2.312,11.392a98.215,98.215,0,0,1-1.717,15.6Z" transform="translate(-113.541 -122.703)" fill="#fff" opacity="0.3"/>
      </g>
      <path id="Path_2974" data-name="Path 2974" d="M115.448,148.182c3.418-4.42,4.656-9.478,3.547-12.265l-3.858.866C115.448,141.324,115.532,144.985,115.448,148.182Z" transform="translate(-14.744 -17.474)" fill="#ff4874" opacity="0.3"/>
      <path id="Path_2975" data-name="Path 2975" d="M140.121,124.852c-.668-.174-1.337-.334-2-.485a83.957,83.957,0,0,0-11.75-1.519c-.585-.046-1.162-.077-1.739-.106l-1.01-.046.76,1.33c.106.182,2.688,4.4,9.113,8.946l1.374.957,1.322-1.01a9.98,9.98,0,0,0,4.162-8Z" transform="translate(-15.836 -15.774)" fill="#fff"/>
      <path id="Path_2976" data-name="Path 2976" d="M129.637,113.624c-.243,3.2-.994,6.456-2.856,7.822,0,0,2.369,3.942,8.506,8.248a7.519,7.519,0,0,0,3.243-6.744c-4.086-1.519-3.8-4.352-2.073-8.871l-3.19-1.716a2.089,2.089,0,0,0-3.63,1.261Z" transform="translate(-16.241 -14.358)" fill="#ff8b7b"/>
      <path id="Path_2977" data-name="Path 2977" d="M133.694,112.362a2.088,2.088,0,0,0-3.592.973,12.911,12.911,0,0,0,5.582,5.7,13.842,13.842,0,0,1,1.193-4.959Z" transform="translate(-16.668 -14.357)" opacity="0.2"/>
      <path id="Path_2978" data-name="Path 2978" d="M124.312,100.786c1.588,6.175,2.127,8.817,5.9,11.392,5.674,3.9,12.911.607,13.193-5.909.266-5.871-2.369-14.984-8.962-16.291a8.7,8.7,0,0,0-10.132,10.808Z" transform="translate(-15.884 -11.545)" fill="#ff8b7b"/>
      <path id="Path_2979" data-name="Path 2979" d="M139.723,91.117a33.345,33.345,0,0,1-12.911,7.116s4.716,10.033-4.109,7.5c-2.559-8.544,0-12.98,2.278-15.068C132,88.39,136.935,87.631,139.723,91.117Z" transform="translate(-15.58 -11.407)" fill="#263238"/>
      <path id="Path_2980" data-name="Path 2980" d="M123.985,108.936a4.66,4.66,0,0,0,2.613,2.415c1.519.547,2.423-.759,2.1-2.278-.3-1.36-1.451-3.289-3.038-3.19a2.088,2.088,0,0,0-1.671,3.054Z" transform="translate(-15.851 -13.612)" fill="#ff8b7b"/>
      <path id="Path_2981" data-name="Path 2981" d="M113.1,166.111l-1.466,2.165c-.114.167.076.38.372.418l27.129,3.478c.235,0,.441-.06.478-.2l.532-2.279c0-.159-.152-.319-.4-.356l-26.2-3.357a.454.454,0,0,0-.239.008.47.47,0,0,0-.2.128Z" transform="translate(-14.29 -21.337)" fill="#ff4874"/>
      <path id="Path_2982" data-name="Path 2982" d="M116.79,169.512l-.7-.091c-.137,0-.235-.106-.213-.19l.714-2.97a.255.255,0,0,1,.123-.112.251.251,0,0,1,.166-.01l.707.091c.137,0,.235.1.213.19l-.714,2.962C117.063,169.475,116.934,169.528,116.79,169.512Z" transform="translate(-14.839 -21.358)" fill="#263238"/>
      <path id="Path_2983" data-name="Path 2983" d="M140.764,172.581l-.7-.084c-.136,0-.235-.106-.213-.2l.715-2.962c0-.084.152-.145.288-.129l.706.091c.137,0,.236.106.213.19l-.714,2.97C141.038,172.544,140.909,172.6,140.764,172.581Z" transform="translate(-17.921 -21.754)" fill="#263238"/>
      <path id="Path_2984" data-name="Path 2984" d="M128.78,171.047l-.7-.091c-.145,0-.243-.1-.22-.19l.714-2.962c0-.092.153-.145.3-.129l.7.091c.137,0,.235.106.22.19l-.722,2.97C129.053,171.01,128.917,171.063,128.78,171.047Z" transform="translate(-16.38 -21.556)" fill="#263238"/>
      <path id="Path_2985" data-name="Path 2985" d="M136.5,101.947c.091.509.44.873.759.805s.525-.525.425-1.033-.448-.874-.759-.805S136.42,101.439,136.5,101.947Z" transform="translate(-17.488 -12.973)" fill="#263238"/>
      <path id="Path_2986" data-name="Path 2986" d="M143.084,100.682c.1.509.449.866.76.805s.524-.532.425-1.04-.448-.866-.759-.8S142.993,100.174,143.084,100.682Z" transform="translate(-18.334 -12.809)" fill="#263238"/>
      <path id="Path_2987" data-name="Path 2987" d="M143.383,99.626l1.155-.592S144.142,100.112,143.383,99.626Z" transform="translate(-18.376 -12.732)" fill="#263238"/>
      <path id="Path_2988" data-name="Path 2988" d="M141.344,102.145a14.114,14.114,0,0,0,2.437,2.893,2.208,2.208,0,0,1-1.746.691Z" transform="translate(-18.114 -13.132)" fill="#ff5652"/>
      <path id="Path_2989" data-name="Path 2989" d="M137.227,108.535a.154.154,0,0,0-.037.1.145.145,0,0,0,.031.1.152.152,0,0,0,.187.043,4.078,4.078,0,0,1,3.706,0,.15.15,0,0,0,.2-.053.156.156,0,0,0,.019-.115.159.159,0,0,0-.064-.1,4.389,4.389,0,0,0-4,0S137.272,108.52,137.227,108.535Z" transform="translate(-17.579 -13.888)" fill="#263238"/>
      <path id="Path_2990" data-name="Path 2990" d="M134.155,100a.275.275,0,0,0,.106-.121,2.405,2.405,0,0,1,1.717-1.36.3.3,0,0,0,.113-.037.292.292,0,0,0,.091-.078.3.3,0,0,0,.054-.107.329.329,0,0,0-.027-.233.3.3,0,0,0-.076-.091.3.3,0,0,0-.224-.062,3.041,3.041,0,0,0-2.2,1.7.307.307,0,0,0-.025.193.3.3,0,0,0,.278.244.307.307,0,0,0,.188-.05Z" transform="translate(-17.129 -12.587)" fill="#263238"/>
      <path id="Path_2991" data-name="Path 2991" d="M144.611,95.735l.037-.038a.3.3,0,0,0,.049-.109.306.306,0,0,0,0-.119.3.3,0,0,0-.044-.111.306.306,0,0,0-.084-.086,3.037,3.037,0,0,0-2.749-.41.312.312,0,0,0-.162.164.307.307,0,0,0,0,.231.3.3,0,0,0,.395.167,2.4,2.4,0,0,1,2.172.349.3.3,0,0,0,.388-.038Z" transform="translate(-18.151 -12.175)" fill="#263238"/>
      <path id="Path_2992" data-name="Path 2992" d="M136.82,100.89l1.155-.585S137.527,101.376,136.82,100.89Z" transform="translate(-17.532 -12.895)" fill="#263238"/>
      <path id="Path_2993" data-name="Path 2993" d="M90.592,216.345a4.04,4.04,0,0,1-4.04-4c-.106-10.784,3.486-19.891,10.39-26.331,8.5-7.929,21.752-11.613,37.337-10.382,10.929.866,17.939-1.793,26.051-4.884,1.337-.5,2.681-1.018,4.063-1.519a4.042,4.042,0,1,1,2.765,7.6c-1.345.485-2.651.987-3.949,1.481-8.271,3.144-16.815,6.388-29.567,5.385-13.291-1.055-24.365,1.868-31.185,8.233-5.316,4.921-7.906,11.764-7.822,20.346a4.039,4.039,0,0,1-4,4.078Z" transform="translate(-11.069 -21.725)" fill="#ff4874"/>
      <path id="Path_2994" data-name="Path 2994" d="M193.948,180.312,177.7,186.266a5.446,5.446,0,0,1-6.986-3.24L164,164.7a5.445,5.445,0,0,1,3.24-6.986l16.252-5.954,10.45,28.526Z" transform="translate(-20.983 -19.511)" fill="#ff4874"/>
      <path id="Path_2995" data-name="Path 2995" d="M193.948,180.312,177.7,186.266a5.446,5.446,0,0,1-6.986-3.24L164,164.7a5.445,5.445,0,0,1,3.24-6.986l16.252-5.954,10.45,28.526Z" transform="translate(-20.983 -19.511)" fill="#fff" opacity="0.7"/>
      <path id="Path_2996" data-name="Path 2996" d="M178.1,154.412l7.253-2.65,10.45,28.541-7.253,2.658a4.37,4.37,0,0,1-1.078-1.671l-9.114-24.9a4.331,4.331,0,0,1-.258-1.975Z" transform="translate(-22.836 -19.511)" fill="#ff4874" opacity="0.2"/>
      <path id="Path_2997" data-name="Path 2997" d="M205.014,159.919l-.713.261,1.739,4.749.714-.261Z" transform="translate(-26.207 -20.56)" fill="#ff4874"/>
      <path id="Path_2998" data-name="Path 2998" d="M200.772,155.083l-2.559-7a6.2,6.2,0,0,0-5.81-4.048,6.083,6.083,0,0,0-2.111.372l-4.618,1.694-.266-.715,4.626-1.693a6.846,6.846,0,0,1,2.369-.418,6.973,6.973,0,0,1,6.524,4.558l2.559,7Z" transform="translate(-23.778 -18.419)" fill="#ff4874"/>
      <path id="Path_2999" data-name="Path 2999" d="M196.358,181.533l6.782-2.453a4.267,4.267,0,0,0,2.561-5.464L196.5,148.165a4.267,4.267,0,0,0-5.463-2.56l-6.782,2.453a4.266,4.266,0,0,0-2.561,5.463l9.206,25.451A4.266,4.266,0,0,0,196.358,181.533Z" transform="translate(-23.268 -18.686)" fill="#ff4874"/>
      <path id="Path_3000" data-name="Path 3000" d="M193.455,157.222a2.278,2.278,0,1,1-1.177-1.283A2.274,2.274,0,0,1,193.455,157.222Z" transform="translate(-24.245 -20.021)" fill="#263238"/>
      <path id="Path_3001" data-name="Path 3001" d="M199.966,174.994a2.277,2.277,0,1,1-.462-.761,2.282,2.282,0,0,1,.462.761Z" transform="translate(-25.082 -22.305)" fill="#263238"/>
      <path id="Path_3002" data-name="Path 3002" d="M121.552,167.114l-.061-.069c-1.185-1.184-2.438-2.476-3.569-3.8s-2.24-2.643-3.25-4.01a37.55,37.55,0,0,1-2.7-4.185,21.821,21.821,0,0,1-1.466-3.243c.456-1.519.941-3.038,1.519-4.5.661-1.755,1.4-3.479,2.218-5.18s1.678-3.372,2.613-5.006c.456-.82.934-1.632,1.427-2.43l.76-1.169c.235-.38.516-.759.714-1.086l.084-.122a3.8,3.8,0,0,0-6.2-4.382c-.38.516-.668.926-.973,1.374s-.577.9-.865,1.345c-.554.9-1.094,1.8-1.61,2.719a60.023,60.023,0,0,0-2.787,5.65c-.425.957-.76,1.937-1.193,2.917a24.834,24.834,0,0,0-1.025,2.993,56.144,56.144,0,0,0-1.588,6.144v.175a3.039,3.039,0,0,0,.114,1.664,24.94,24.94,0,0,0,2.909,5.5,36.691,36.691,0,0,0,3.752,4.557,46.821,46.821,0,0,0,4.246,3.835,45.236,45.236,0,0,0,4.687,3.273,1.883,1.883,0,0,0,2.278-2.962Z" transform="translate(-13.253 -16.255)" fill="#ff8b7b"/>
      <path id="Path_3003" data-name="Path 3003" d="M132.569,176.863l-.1-.2a4.71,4.71,0,0,0-3.318-2.582l-5.765-1.169-2.818,1.4c.3,3.16,4.816,5.051,4.816,5.051l1.284,1.466a2.66,2.66,0,0,0,3.524.418l1.519-1.087a2.644,2.644,0,0,0,.858-3.3Z" transform="translate(-15.442 -22.23)" fill="#ff8b7b"/>
      <path id="Path_3004" data-name="Path 3004" d="M117.3,123.191c-3.2,1.466-6.6,6.539-6.6,6.539l6.836,12.8s7.77-8.955,7.116-13.436C124.121,125.287,121.372,121.322,117.3,123.191Z" transform="translate(-14.174 -15.776)" fill="#ff4874"/>
      <g id="Group_2955" data-name="Group 2955" transform="translate(96.527 106.937)" opacity="0.3">
        <path id="Path_3005" data-name="Path 3005" d="M117.3,123.191c-3.2,1.466-6.6,6.539-6.6,6.539l6.836,12.8s7.77-8.955,7.116-13.436C124.121,125.287,121.372,121.322,117.3,123.191Z" transform="translate(-110.701 -122.714)" fill="#fff" opacity="0.3"/>
      </g>
      <path id="Path_3006" data-name="Path 3006" d="M359.213,287.945c-6.691,0-13.268-1.374-16.458-5.536-15.1-19.747-14.962-59.468-14.833-97.906.076-20.7,1.709-40.253-.593-55.443-1.352-8.955-6.076-15.1-10.846-18.273-7.078-4.679-16.8-2.165-20.954-1.095a4.04,4.04,0,1,1-2.021-7.822c5.188-1.345,17.355-4.481,27.426,2.172,6.8,4.489,12.675,12.5,14.384,23.81,2.393,15.8.76,35.643.684,56.65-.129,37.086-.258,75.433,13.169,92.969,1.087,1.413,5.317,2.681,12.342,2.316.622,0,1.23-.068,1.83-.121a3.96,3.96,0,0,1-.41-1.77,4.04,4.04,0,0,1,4.04-4.041c8.833,0,13.481.76,14.377,4.8.259,1.162.4,4.078-3.873,6.076C374.289,286.229,366.679,287.945,359.213,287.945Z" transform="translate(-37.277 -12.849)" fill="#ff4874"/>
      <path id="Path_3007" data-name="Path 3007" d="M266.684,317.095l-8.241-3.243,4.345-14.286,8.247,3.236Z" transform="translate(-33.168 -38.513)" fill="#ffc3bd"/>
      <path id="Path_3008" data-name="Path 3008" d="M256.593,314.94l9.3,3.645a.571.571,0,0,1,.349.607l-.912,5.788a.95.95,0,0,1-1.291.721c-2.331-.964-5.984-2.559-8.939-3.721-1.815-.714-5.27-1.854-7.785-2.841s-1.861-3.6-.76-3.417c5.006.8,6.919-.054,8.917-.8a1.519,1.519,0,0,1,1.124.016Z" transform="translate(-31.514 -40.475)" fill="#263238"/>
      <path id="Path_3009" data-name="Path 3009" d="M271.348,302.808l-8.248-3.243-2.24,7.367,8.248,3.243Z" transform="translate(-33.479 -38.513)" opacity="0.2"/>
      <path id="Path_3010" data-name="Path 3010" d="M281.477,176.391s-7.458,36.865-10.306,55.048c-3.205,20.377-11.674,57.6-11.674,57.6l10.959,4.307s15.654-38.111,17.833-56.567c6.57-15,19.633-59.142,19.633-59.142Z" transform="translate(-33.304 -22.677)" fill="#ff4874"/>
      <path id="Path_3011" data-name="Path 3011" d="M258.891,305.066l12.03,4.732,2.058-3.646-13.451-5.575Z" transform="translate(-33.226 -38.643)" fill="#263238"/>
      <path id="Path_3012" data-name="Path 3012" d="M255.339,314.856a1.968,1.968,0,0,1-1.033-.76.942.942,0,0,1,0-.866.481.481,0,0,1,.154-.208.476.476,0,0,1,.241-.1c.8-.084,2.279,1.861,2.423,2.089a.154.154,0,0,1,0,.166.157.157,0,0,1-.066.057.162.162,0,0,1-.086.011,7.805,7.805,0,0,1-1.633-.395Zm-.4-1.588a.381.381,0,0,0-.2-.038c-.045,0-.1,0-.152.13a.6.6,0,0,0,0,.592,3.03,3.03,0,0,0,2.081.942,5.98,5.98,0,0,0-1.732-1.625Z" transform="translate(-32.623 -40.23)" fill="#ff4874"/>
      <path id="Path_3013" data-name="Path 3013" d="M257.223,315.105a.117.117,0,0,1-.061-.045c-.486-.577-1.169-2.362-.759-2.977a.5.5,0,0,1,.266-.2.5.5,0,0,1,.334.011.827.827,0,0,1,.31.152.842.842,0,0,1,.221.265c.471.844-.061,2.62-.084,2.7a.151.151,0,0,1-.046.07.159.159,0,0,1-.075.037.1.1,0,0,1-.054.01.1.1,0,0,1-.052-.018Zm-.258-2.9H256.9c-.2-.045-.243,0-.266.069-.228.364.144,1.656.577,2.362a3.654,3.654,0,0,0,0-2.157.532.532,0,0,0-.25-.274Z" transform="translate(-32.89 -40.093)" fill="#ff4874"/>
      <path id="Path_3014" data-name="Path 3014" d="M302.324,202.005c-4.132,5.119-5.765,18.167-5.75,29.042,2.788-7.678,5.985-17.43,8.8-26.285Z" transform="translate(-38.07 -25.97)" opacity="0.2"/>
      <path id="Path_3015" data-name="Path 3015" d="M323.332,319.062h-8.856L313.3,304.176h8.856Z" transform="translate(-40.22 -39.106)" fill="#ffc3bd"/>
      <path id="Path_3016" data-name="Path 3016" d="M312.655,320.4h9.988a.556.556,0,0,1,.547.441l1.268,5.711a.944.944,0,0,1-.006.422.966.966,0,0,1-.188.378.951.951,0,0,1-.748.347c-2.521-.046-6.493-.2-9.668-.2-1.96,0-5.59.206-8.286.206s-3.038-2.667-1.952-2.909c4.96-1.087,6.433-2.575,8.013-4a1.563,1.563,0,0,1,1.033-.4Z" transform="translate(-38.901 -41.192)" fill="#263238"/>
      <path id="Path_3017" data-name="Path 3017" d="M322.154,304.176h-8.863l.615,7.678h8.863Z" transform="translate(-40.219 -39.106)" opacity="0.2"/>
      <path id="Path_3018" data-name="Path 3018" d="M297.027,176.923s4.906,41.08,5.94,55.868c1.435,20.582,6.987,61.215,6.987,61.215h11.772s1.261-41.5-.866-59.962c2.931-16.109,2.005-55.884,2.005-55.884Z" transform="translate(-38.128 -22.746)" fill="#ff4874"/>
      <path id="Path_3019" data-name="Path 3019" d="M311.165,310.916h12.926l.586-4.139-14.56-.274Z" transform="translate(-39.811 -39.405)" fill="#263238"/>
      <path id="Path_3020" data-name="Path 3020" d="M311.361,321.322a1.965,1.965,0,0,1-1.238-.327.947.947,0,0,1-.319-.805.481.481,0,0,1,.071-.254.488.488,0,0,1,.194-.18c.714-.364,2.787.912,3.038,1.056a.153.153,0,0,1,.076.152.173.173,0,0,1-.121.129A7.624,7.624,0,0,1,311.361,321.322Zm-.958-1.33a.413.413,0,0,0-.2.038c-.038,0-.084.061-.091.174a.607.607,0,0,0,.206.555,3.081,3.081,0,0,0,2.278.113,6.138,6.138,0,0,0-2.172-.881Z" transform="translate(-39.77 -41.1)" fill="#ff4874"/>
      <path id="Path_3021" data-name="Path 3021" d="M313.228,320.875h-.076c-.661-.365-1.952-1.77-1.815-2.491a.494.494,0,0,1,.486-.395.817.817,0,0,1,.343.024.805.805,0,0,1,.3.166c.76.615.9,2.468.912,2.544a.163.163,0,0,1-.016.081.169.169,0,0,1-.052.064.2.2,0,0,1-.084.008Zm-1.3-2.606h-.069c-.2,0-.213.122-.22.159-.084.418.76,1.519,1.4,1.99a3.692,3.692,0,0,0-.76-2.021.567.567,0,0,0-.349-.129Z" transform="translate(-39.967 -40.88)" fill="#ff4874"/>
      <path id="Path_3022" data-name="Path 3022" d="M296.288,110.332l-7.093-.091c-2.385,0-4.755-.077-7.1-.114-.714,0-1.413-.045-2.119-.076.046,0,.076-.084.114-.122.5-.532,1-1.078,1.519-1.6q.387-.409.76-.8c.235-.258.539-.546.7-.759l.646-.821a3.926,3.926,0,0,0-4.117-6.212l-1.4.38c-.433.129-.865.274-1.3.417-.85.3-1.686.623-2.514.98a37.248,37.248,0,0,0-4.823,2.566,34.719,34.719,0,0,0-4.519,3.44A29.969,29.969,0,0,0,261,112.01a6.878,6.878,0,0,0-.759,1.306,6.652,6.652,0,0,0,3.433,8.757l.691.3a29.17,29.17,0,0,0,4.83,1.595c1.443.372,2.81.615,4.154.843s2.659.41,3.965.57,2.6.281,3.888.388c2.575.227,5.127.342,7.671.417s5.035.076,7.678-.045a7.914,7.914,0,0,0-.258-15.821Z" transform="translate(-33.328 -12.805)" fill="#ffc3bd"/>
      <path id="Path_3023" data-name="Path 3023" d="M303.351,125.635c-6.129,6.987-20.878,4.375-20.878,4.375l.812-17.407a76.755,76.755,0,0,1,15.388-1.786C307.331,110.8,308.257,120.03,303.351,125.635Z" transform="translate(-36.257 -14.247)" fill="#263238"/>
      <path id="Path_3024" data-name="Path 3024" d="M287.046,120.282c-.364,2.81-.759,6.592-1,11.681-3.2,16.177-4.389,27.638-1.564,36,2.233,2.756,31.329,2.225,36.562,1.693,3.038-7.519,3.357-29.1,3.714-47.248a10.46,10.46,0,0,0-8.7-10.5,70.249,70.249,0,0,0-19.838-.668,10.451,10.451,0,0,0-9.182,9.039Z" transform="translate(-36.312 -14.249)" fill="#263238"/>
      <path id="Path_3025" data-name="Path 3025" d="M320.053,134.349c.1,5.528,4.109,14.361,8.62,18.842.273-4.67.448-9.737.585-14.848Z" transform="translate(-41.089 -17.272)" opacity="0.2"/>
      <path id="Path_3026" data-name="Path 3026" d="M344.458,142.5l-.258-.607a57.836,57.836,0,0,0-3.714-7.344c-1.352-2.279-2.81-4.428-4.321-6.5s-3.115-4.056-4.755-5.984c-.836-.957-1.664-1.915-2.537-2.841l-1.314-1.382-1.4-1.413a7.914,7.914,0,0,0-11.453,10.914l.227.251,4.458,4.959c1.519,1.686,2.97,3.4,4.413,5.111.7.858,1.42,1.717,2.073,2.59s1.345,1.717,2,2.582c.942,1.314,1.854,2.62,2.666,3.9a19.361,19.361,0,0,1-.471,1.922,55.1,55.1,0,0,1-1.922,5.423c-.759,1.876-1.564,3.8-2.4,5.689s-1.732,3.866-2.529,5.765l-.076.166a3.995,3.995,0,0,0,6.38,4.489,63.131,63.131,0,0,0,4.762-4.921,60.778,60.778,0,0,0,4.276-5.392c.676-.95,1.321-1.937,1.959-2.962a34.293,34.293,0,0,0,1.815-3.228,30.206,30.206,0,0,0,1.6-3.737,17.012,17.012,0,0,0,.972-5.1,5.685,5.685,0,0,0-.448-2.355Z" transform="translate(-40.142 -14.674)" fill="#ffc3bd"/>
      <path id="Path_3027" data-name="Path 3027" d="M320.258,112.168c10.245,1.754,16.922,15.622,16.922,15.622l-12.349,13.284a103.705,103.705,0,0,1-11.392-13.96C308.828,119.808,312.922,110.922,320.258,112.168Z" transform="translate(-39.988 -14.405)" fill="#263238"/>
      <path id="Path_3028" data-name="Path 3028" d="M299.742,84.638a9.151,9.151,0,0,1,.865-10.868,3.188,3.188,0,0,1-3.128-1.519A18.827,18.827,0,0,1,309.7,68c9.189,0,9.873,3.547,9.561,5.97,6.289.4,10.876,16.754-5.066,19.648C305.074,84.008,299.742,84.638,299.742,84.638Z" transform="translate(-38.187 -8.742)" fill="#263238"/>
      <path id="Path_3029" data-name="Path 3029" d="M321.722,74.337s2.559-2.613-.622-5.772a4.28,4.28,0,0,1,2.992,2.977C324.54,73.38,323.3,74.853,321.722,74.337Z" transform="translate(-41.223 -8.815)" fill="#263238"/>
      <path id="Path_3030" data-name="Path 3030" d="M315.609,95.1c-.243,5.036-.7,10.762.145,14.78-1.306,2.058-4.648,4.428-10.633,4.959-2.126-1.208-4.937-4.162-3.957-5.681,2.545-1.633,3.623-6.578,2.894-10.276Z" transform="translate(-38.634 -12.227)" fill="#ffc3bd"/>
      <path id="Path_3031" data-name="Path 3031" d="M313.147,96.192,304.5,99.025a13.575,13.575,0,0,1,.038,4.769,11.608,11.608,0,0,0,7.5-3.85,4.8,4.8,0,0,0,1.109-3.752Z" transform="translate(-39.089 -12.367)" opacity="0.2"/>
      <path id="Path_3032" data-name="Path 3032" d="M317.838,84.331c-1.6,6.175-2.226,9.873-6.008,12.463-5.689,3.9-12.843-.471-13.124-6.995-.243-5.878,2.415-14.992,9.023-16.291a8.7,8.7,0,0,1,10.109,10.823Z" transform="translate(-38.342 -9.428)" fill="#ffc3bd"/>
      <path id="Path_3033" data-name="Path 3033" d="M318.717,75.807c-2.711,1.929-6.076,10.1.76,13.382C325.613,83.8,324.026,75.807,318.717,75.807Z" transform="translate(-40.497 -9.746)" fill="#263238"/>
      <path id="Path_3034" data-name="Path 3034" d="M318.516,76.123c1.163-5.377-12.41-8.157-16.708-1.876C300.349,78.029,317.7,81.371,318.516,76.123Z" transform="translate(-38.732 -9.082)" fill="#263238"/>
      <path id="Path_3035" data-name="Path 3035" d="M308.694,93.305a13.123,13.123,0,0,0-4.465-1.132.159.159,0,0,0-.15.1.143.143,0,0,0-.01.063.215.215,0,0,0,.071.127.218.218,0,0,0,.134.055,12.717,12.717,0,0,1,4.283,1.078.182.182,0,0,0,.134,0,.183.183,0,0,0,.1-.088.162.162,0,0,0,.011-.064.147.147,0,0,0-.015-.064.161.161,0,0,0-.1-.085Z" transform="translate(-39.034 -11.85)" fill="#263238"/>
      <path id="Path_3036" data-name="Path 3036" d="M321.423,93.01a6.076,6.076,0,0,1-4.222,1.906c-2.127.046-2.667-1.982-1.641-3.714.926-1.519,3.144-3.463,5.073-2.689A2.708,2.708,0,0,1,321.423,93.01Z" transform="translate(-40.446 -11.357)" fill="#ffc3bd"/>
      <path id="Path_3037" data-name="Path 3037" d="M309.216,85.68c-.1.509-.448.873-.759.805s-.517-.532-.418-1.04.449-.866.76-.759S309.315,85.148,309.216,85.68Z" transform="translate(-39.541 -10.885)" fill="#263238"/>
      <path id="Path_3038" data-name="Path 3038" d="M302.618,84.393c-.1.509-.448.866-.76.805s-.524-.532-.425-1.04.448-.873.76-.805S302.686,83.885,302.618,84.393Z" transform="translate(-38.692 -10.715)" fill="#263238"/>
      <path id="Path_3039" data-name="Path 3039" d="M304.351,85.22A18.6,18.6,0,0,1,301.07,89.1a2.945,2.945,0,0,0,2.438.813Z" transform="translate(-38.648 -10.956)" fill="#ed847e"/>
      <path id="Path_3040" data-name="Path 3040" d="M308.41,82.438a.327.327,0,0,1,.3.091,2.423,2.423,0,0,0,2.02.873.311.311,0,0,1,.349.258.287.287,0,0,1,0,.119.292.292,0,0,1-.051.107.294.294,0,0,1-.2.116,3.038,3.038,0,0,1-2.567-1.071.308.308,0,0,1-.066-.1.3.3,0,0,1,0-.231.309.309,0,0,1,.066-.1.386.386,0,0,1,.153-.068Z" transform="translate(-39.561 -10.597)" fill="#263238"/>
      <path id="Path_3041" data-name="Path 3041" d="M300.725,80.324a.275.275,0,0,1-.159-.1A.3.3,0,0,1,300.5,80a.284.284,0,0,1,.038-.115.3.3,0,0,1,.079-.091,3.04,3.04,0,0,1,2.712-.585.312.312,0,0,1,.2.387.326.326,0,0,1-.387.19h0a2.424,2.424,0,0,0-2.15.486.261.261,0,0,1-.125.063.268.268,0,0,1-.14-.01Z" transform="translate(-38.575 -10.17)" fill="#263238"/>
      <path id="Path_3042" data-name="Path 3042" d="M327.928,172.854l-6.524-.045,3.372,7.488s5.567-1.192,5.263-4.215Z" transform="translate(-41.262 -22.217)" fill="#ffc3bd"/>
      <path id="Path_3043" data-name="Path 3043" d="M317.555,177.95l1.071,2.111a2.537,2.537,0,0,0,3.2,1.2l2.423-.965-3.372-7.488-2.59,1.975a2.528,2.528,0,0,0-.729,3.167Z" transform="translate(-40.732 -22.217)" fill="#ffc3bd"/>
      <path id="Path_3044" data-name="Path 3044" d="M271.309,158.248a4.048,4.048,0,0,1-2.893-6.836c2.9-2.993,5.521-5.317,7.83-7.344,5.575-4.914,7.5-6.836,7.314-10.519a36.976,36.976,0,0,0-1.443-6.7c-1.664-6.114-3.547-13.032-.319-18.584,1.732-2.985,4.671-5.028,8.741-6.077a4.041,4.041,0,0,1,2.021,7.823c-2.864.76-3.555,1.922-3.8,2.316-1.519,2.62-.053,8.043,1.132,12.4a42.207,42.207,0,0,1,1.716,8.43c.38,7.785-4.215,11.84-10.04,16.975-2.2,1.944-4.694,4.146-7.383,6.911a4.015,4.015,0,0,1-2.878,1.208Z" transform="translate(-34.307 -13.124)" fill="#ff4874"/>
      <path id="Path_3045" data-name="Path 3045" d="M281.884,99.71l6.319-1.618-1.474,8.081s-5.689.174-6.114-2.825Z" transform="translate(-36.019 -12.611)" fill="#ffc3bd"/>
      <path id="Path_3046" data-name="Path 3046" d="M293.539,102.375l-.485,2.111a2.651,2.651,0,0,1-2.947,2.028l-2.476-.342,1.474-8.081,2.9,1.253a2.651,2.651,0,0,1,1.534,3.03Z" transform="translate(-36.92 -12.611)" fill="#ffc3bd"/>
      <path id="Path_3047" data-name="Path 3047" d="M265.484,151.174l-.172-.172a1.967,1.967,0,0,0-2.782,0l-22.4,22.4a1.966,1.966,0,0,0,0,2.782l.172.172a1.968,1.968,0,0,0,2.782,0l22.4-22.4A1.968,1.968,0,0,0,265.484,151.174Z" transform="translate(-30.74 -19.339)" fill="#263238"/>
      <path id="Path_3048" data-name="Path 3048" d="M278.879,164.552l-.173-.172a1.968,1.968,0,0,0-2.782,0l-22.4,22.4a1.968,1.968,0,0,0,0,2.782l.173.172a1.966,1.966,0,0,0,2.782,0l22.4-22.4A1.968,1.968,0,0,0,278.879,164.552Z" transform="translate(-32.462 -21.059)" fill="#263238"/>
      <path id="Path_3049" data-name="Path 3049" d="M248.328,158.29l15.783-15.783a5.448,5.448,0,0,1,7.7,0l13.8,13.8a5.448,5.448,0,0,1,0,7.7l-15.784,15.783Z" transform="translate(-31.868 -18.116)" fill="#ff4874"/>
      <path id="Path_3050" data-name="Path 3050" d="M248.328,158.29l15.783-15.783a5.448,5.448,0,0,1,7.7,0l13.8,13.8a5.448,5.448,0,0,1,0,7.7l-15.784,15.783Z" transform="translate(-31.868 -18.116)" fill="#fff" opacity="0.7"/>
      <path id="Path_3051" data-name="Path 3051" d="M253.767,154.559l-5.468,5.46,21.5,21.5,5.46-5.468a4.35,4.35,0,0,0-1.055-1.686l-18.752-18.713a4.357,4.357,0,0,0-1.686-1.094Z" transform="translate(-31.864 -19.87)" fill="#ff4874" opacity="0.2"/>
      <path id="Path_3052" data-name="Path 3052" d="M247,157.481l-.391.392a4.268,4.268,0,0,0,0,6.036l19.145,19.145a4.269,4.269,0,0,0,6.036,0l.392-.392a4.268,4.268,0,0,0,0-6.036l-19.145-19.146A4.268,4.268,0,0,0,247,157.481Z" transform="translate(-31.486 -20.085)" fill="#ff4874"/>
      <path id="Path_3053" data-name="Path 3053" d="M289.595.645H120.2A6.4,6.4,0,0,0,113.8,7.039v30.9A6.4,6.4,0,0,0,120.2,44.33h169.4a6.4,6.4,0,0,0,6.395-6.395V7.039A6.4,6.4,0,0,0,289.595.645Z" transform="translate(-14.573 -0.083)" fill="#fff"/>
      <path id="Path_3054" data-name="Path 3054" d="M289.517,44.81H120.151a6.965,6.965,0,0,1-6.958-6.957V6.957A6.965,6.965,0,0,1,120.151,0H289.517a6.965,6.965,0,0,1,6.957,6.957v30.9a6.965,6.965,0,0,1-6.957,6.957ZM120.151,1.124a5.84,5.84,0,0,0-5.833,5.833v30.9a5.84,5.84,0,0,0,5.833,5.833H289.517a5.84,5.84,0,0,0,5.833-5.833V6.957a5.84,5.84,0,0,0-5.833-5.833Z" transform="translate(-14.494)" fill="#263238"/>
      <path id="Path_3055" data-name="Path 3055" d="M216.259,72.375a14.081,14.081,0,1,0-14.081-14.081A14.081,14.081,0,0,0,216.259,72.375Z" transform="translate(-25.934 -5.684)" fill="#263238"/>
      <path id="Path_3056" data-name="Path 3056" d="M216.567,70.588A11.985,11.985,0,1,0,204.582,58.6,11.985,11.985,0,0,0,216.567,70.588Z" transform="translate(-26.244 -5.993)" fill="#fff"/>
      <path id="Path_3057" data-name="Path 3057" d="M225.243,55.35h-5.621L224.339,41.4l-15.3,19.116h5.621l-4.717,13.952Z" transform="translate(-26.816 -5.322)" fill="#ff4874"/>
      <path id="Path_3058" data-name="Path 3058" d="M225.407,69.112l1.675-1.676L208.237,48.592l-1.675,1.676Z" transform="translate(-26.498 -6.247)" fill="#263238"/>
    </g>
    <text id="JUBER" transform="translate(720.5 326.541)" fill="#ff4874" font-size="19" font-family="Montserrat-SemiBold, Montserrat" font-weight="600" letter-spacing="0.03em"><tspan x="-32.652" y="0">OOPS!</tspan></text>
  </g>
</svg>
